<svg width="655" height="393" viewBox="0 0 655 393" xmlns="http://www.w3.org/2000/svg">
  <defs>
    <linearGradient id="accent-gradient" x1="0%" y1="0%" x2="100%" y2="0%">
      <stop offset="0%" style="stop-color:#b30000;stop-opacity:1" />
      <stop offset="100%" style="stop-color:#ff0000;stop-opacity:0.8" />
    </linearGradient>
  </defs>

  <rect x="1" y="1" width="653" height="391" fill="#000000" rx="8"/>

  <rect x="10" y="10" width="635" height="3" fill="url(#accent-gradient)" rx="1"/>

  <text x="40" y="52" font-family="'Ubuntu', 'Helvetica', 'Arial', sans-serif" font-size="28" font-weight="700" fill="#ffffff">
    73,785
  </text>
  <text x="40" y="74" font-family="'Ubuntu', 'Helvetica', 'Arial', sans-serif" font-size="12" fill="#ffffff">
    LINES OF CODE
  </text>

  <text x="615" y="52" font-family="'Ubuntu', 'Helvetica', 'Arial', sans-serif" font-size="22" font-weight="600" fill="#ffffff" text-anchor="end">
    756
  </text>
  <text x="615" y="70" font-family="'Ubuntu', 'Helvetica', 'Arial', sans-serif" font-size="11" fill="#ffffff" text-anchor="end">
    FILES
  </text>

  <line x1="30" y1="95" x2="625" y2="95" stroke="#30363d" stroke-width="1"/>

  <text x="40" y="122" font-family="'Ubuntu', 'Helvetica', 'Arial', sans-serif" font-size="14" font-weight="600" fill="#b30000">
    TOP LANGUAGES
  </text>

  <text x="40" y="150" font-family="'Ubuntu', 'Helvetica', 'Arial', sans-serif" font-size="12" fill="#ffffff">
    JSON
  </text>
  <rect x="175" y="139" width="315" height="14" fill="#21262d" rx="3"/>
  <rect x="175" y="139" width="315.0" height="14" fill="#b30000" rx="3" opacity="0.85"/>
  <text x="505" y="150" font-family="'Ubuntu', 'Helvetica', 'Arial', sans-serif" font-size="11" fill="#ffffff">
    25,641
  </text>
  <text x="620" y="150" font-family="'Ubuntu', 'Helvetica', 'Arial', sans-serif" font-size="11" fill="#ffffff" text-anchor="end">
    34.8%
  </text>

  <text x="40" y="176" font-family="'Ubuntu', 'Helvetica', 'Arial', sans-serif" font-size="12" fill="#ffffff">
    JavaScript
  </text>
  <rect x="175" y="165" width="315" height="14" fill="#21262d" rx="3"/>
  <rect x="175" y="165" width="199.39803439803438" height="14" fill="#FFD700" rx="3" opacity="0.85"/>
  <text x="505" y="176" font-family="'Ubuntu', 'Helvetica', 'Arial', sans-serif" font-size="11" fill="#ffffff">
    16,231
  </text>
  <text x="620" y="176" font-family="'Ubuntu', 'Helvetica', 'Arial', sans-serif" font-size="11" fill="#ffffff" text-anchor="end">
    22.0%
  </text>

  <text x="40" y="202" font-family="'Ubuntu', 'Helvetica', 'Arial', sans-serif" font-size="12" fill="#ffffff">
    Python
  </text>
  <rect x="175" y="191" width="315" height="14" fill="#21262d" rx="3"/>
  <rect x="175" y="191" width="102.67813267813267" height="14" fill="#0080FF" rx="3" opacity="0.85"/>
  <text x="505" y="202" font-family="'Ubuntu', 'Helvetica', 'Arial', sans-serif" font-size="11" fill="#ffffff">
    8,358
  </text>
  <text x="620" y="202" font-family="'Ubuntu', 'Helvetica', 'Arial', sans-serif" font-size="11" fill="#ffffff" text-anchor="end">
    11.3%
  </text>

  <text x="40" y="228" font-family="'Ubuntu', 'Helvetica', 'Arial', sans-serif" font-size="12" fill="#ffffff">
    CSS
  </text>
  <rect x="175" y="217" width="315" height="14" fill="#21262d" rx="3"/>
  <rect x="175" y="217" width="74.32432432432432" height="14" fill="#563d7c" rx="3" opacity="0.85"/>
  <text x="505" y="228" font-family="'Ubuntu', 'Helvetica', 'Arial', sans-serif" font-size="11" fill="#ffffff">
    6,050
  </text>
  <text x="620" y="228" font-family="'Ubuntu', 'Helvetica', 'Arial', sans-serif" font-size="11" fill="#ffffff" text-anchor="end">
    8.2%
  </text>

  <text x="40" y="254" font-family="'Ubuntu', 'Helvetica', 'Arial', sans-serif" font-size="12" fill="#ffffff">
    Kotlin
  </text>
  <rect x="175" y="243" width="315" height="14" fill="#21262d" rx="3"/>
  <rect x="175" y="243" width="71.4004914004914" height="14" fill="#F18E33" rx="3" opacity="0.85"/>
  <text x="505" y="254" font-family="'Ubuntu', 'Helvetica', 'Arial', sans-serif" font-size="11" fill="#ffffff">
    5,812
  </text>
  <text x="620" y="254" font-family="'Ubuntu', 'Helvetica', 'Arial', sans-serif" font-size="11" fill="#ffffff" text-anchor="end">
    7.9%
  </text>

  <text x="40" y="280" font-family="'Ubuntu', 'Helvetica', 'Arial', sans-serif" font-size="12" fill="#ffffff">
    TypeScript
  </text>
  <rect x="175" y="269" width="315" height="14" fill="#21262d" rx="3"/>
  <rect x="175" y="269" width="65.55282555282555" height="14" fill="#00CED1" rx="3" opacity="0.85"/>
  <text x="505" y="280" font-family="'Ubuntu', 'Helvetica', 'Arial', sans-serif" font-size="11" fill="#ffffff">
    5,336
  </text>
  <text x="620" y="280" font-family="'Ubuntu', 'Helvetica', 'Arial', sans-serif" font-size="11" fill="#ffffff" text-anchor="end">
    7.2%
  </text>

  <text x="40" y="306" font-family="'Ubuntu', 'Helvetica', 'Arial', sans-serif" font-size="12" fill="#ffffff">
    HTML
  </text>
  <rect x="175" y="295" width="315" height="14" fill="#21262d" rx="3"/>
  <rect x="175" y="295" width="17.383292383292382" height="14" fill="#e34c26" rx="3" opacity="0.85"/>
  <text x="505" y="306" font-family="'Ubuntu', 'Helvetica', 'Arial', sans-serif" font-size="11" fill="#ffffff">
    1,415
  </text>
  <text x="620" y="306" font-family="'Ubuntu', 'Helvetica', 'Arial', sans-serif" font-size="11" fill="#ffffff" text-anchor="end">
    1.9%
  </text>

  <text x="40" y="332" font-family="'Ubuntu', 'Helvetica', 'Arial', sans-serif" font-size="12" fill="#ffffff">
    SQL
  </text>
  <rect x="175" y="321" width="315" height="14" fill="#21262d" rx="3"/>
  <rect x="175" y="321" width="14.557739557739557" height="14" fill="#58a6ff" rx="3" opacity="0.85"/>
  <text x="505" y="332" font-family="'Ubuntu', 'Helvetica', 'Arial', sans-serif" font-size="11" fill="#ffffff">
    1,185
  </text>
  <text x="620" y="332" font-family="'Ubuntu', 'Helvetica', 'Arial', sans-serif" font-size="11" fill="#ffffff" text-anchor="end">
    1.6%
  </text>

  <text x="635" y="383" font-family="'SF Mono', 'Monaco', 'Courier New', monospace" font-size="10" fill="#00FFFF" text-anchor="end">
    Updated automatically via GitHub Actions
  </text>
</svg>